<?xml version="1.0" encoding="utf-8"?>
<COLLADA xmlns="http://www.collada.org/2005/11/COLLADASchema" version="1.4.1">
  <asset><contributor><author></author><authoring_tool>FBX COLLADA exporter</authoring_tool><comments></comments></contributor><created>2015-01-14T15:06:37Z</created><keywords></keywords><modified>2015-01-14T15:06:37Z</modified><revision></revision><subject></subject><title></title><unit meter="0.010000" name="centimeter"></unit><up_axis>Y_UP</up_axis></asset>
  <library_images>
    <image id="Mat1F1-image" name="Mat1F1"><init_from>Horned_Helmet_of_Glimmersteel.png</init_from></image>
  </library_images>
  <library_materials>
    <material id="helmetMat" name="helmetMat">
      <instance_effect url="#helmetMat-fx"/>
    </material>
  </library_materials>
  <library_effects>
    <effect id="helmetMat-fx" name="helmetMat">
      <profile_COMMON>
        <technique sid="standard">
          <phong>
            <emission>
              <color sid="emission">0.000000  0.000000 0.000000 1.000000</color>
            </emission>
            <ambient>
              <color sid="ambient">0.170947  0.170947 0.170947 1.000000</color>
            </ambient>
            <diffuse>
              <texture texture="Mat1F1-image" texcoord="CHANNEL0">
                <extra>
                  <technique profile="MAYA">
                    <wrapU sid="wrapU0">TRUE</wrapU>
                    <wrapV sid="wrapV0">TRUE</wrapV>
                    <blend_mode>NONE</blend_mode>
                  </technique>
                </extra>
              </texture>
            </diffuse>
            <specular>
              <color sid="specular">0.000000  0.000000 0.000000 1.000000</color>
            </specular>
            <shininess>
              <float sid="shininess">12.000000</float>
            </shininess>
            <reflective>
              <color sid="reflective">0.000000  0.000000 0.000000 1.000000</color>
            </reflective>
            <reflectivity>
              <float sid="reflectivity">0.500000</float>
            </reflectivity>
            <transparent opaque="RGB_ZERO">
              <color sid="transparent">0.000000  0.000000 0.000000 1.000000</color>
            </transparent>
            <transparency>
              <float sid="transparency">1.000000</float>
            </transparency>
          </phong>
        </technique>
      </profile_COMMON>
    </effect>
  </library_effects>
  <library_geometries>
    <geometry id="Horned_Helmet_of_Gold_ground-lib" name="Horned_Helmet_of_Gold_groundMesh">
      <mesh>
        <source id="Horned_Helmet_of_Gold_ground-POSITION">
          <float_array id="Horned_Helmet_of_Gold_ground-POSITION-array" count="609">
0.000000 0.238934 -0.007355
-0.021200 0.201109 -0.038080
-0.037800 0.209925 -0.019158
-0.075400 0.143144 -0.018071
-0.043400 0.132513 -0.056662
-0.047700 0.092419 -0.053107
-0.081700 0.103514 -0.009734
-0.061200 0.176277 -0.021417
-0.035100 0.169084 -0.049139
0.000000 0.089632 -0.069216
0.000000 0.129893 -0.071251
0.000000 0.166489 -0.061323
-0.038400 0.217402 0.004488
-0.049800 0.198658 0.054990
-0.065100 0.189289 0.020720
-0.081200 0.156481 0.033718
-0.062400 0.168696 0.080303
-0.080800 0.128111 0.074678
-0.087700 0.116993 0.047150
-0.031500 0.222487 0.029520
0.000000 0.199390 -0.043515
-0.045000 -0.002284 -0.023577
-0.047900 0.039918 -0.038706
0.000000 0.035695 -0.056040
0.000000 -0.006708 -0.040218
-0.081300 0.004523 0.016852
-0.081000 0.050655 0.003207
-0.086700 0.011186 0.072744
-0.087800 0.063045 0.058966
-0.065100 0.125515 0.107593
-0.081300 0.119595 0.077267
-0.069800 0.072047 0.114958
-0.064400 0.014022 0.122505
-0.031700 0.130677 0.137845
-0.052000 0.128040 0.122212
-0.036100 0.077312 0.150840
-0.031300 0.011247 0.158833
0.000000 0.080360 0.168440
0.000000 0.006370 0.175583
-0.011700 0.131428 0.146522
-0.031100 0.005915 0.155904
0.000000 0.001420 0.172533
-0.062000 0.008792 0.121222
-0.078000 0.000403 0.019413
-0.083200 0.006529 0.073273
-0.043200 -0.006022 -0.019144
0.000000 -0.010329 -0.035087
0.000000 0.133177 0.152052
0.000000 0.143835 0.147947
-0.011600 0.142086 0.142417
-0.016800 0.230010 0.040041
0.000000 0.231035 0.043283
-0.031200 0.177729 0.113840
-0.027700 0.206216 0.079555
-0.045700 0.151802 0.115432
0.000000 0.180563 0.122803
0.000000 0.211465 0.089851
-0.051500 0.025103 0.109456
-0.020800 0.025408 0.142922
0.000000 0.019209 0.153168
0.000000 0.001590 -0.022600
-0.035700 0.006942 -0.006672
-0.060400 0.013735 0.022434
-0.067200 0.019188 0.066543
-0.052000 0.137861 0.119106
-0.064500 0.135270 0.104613
0.000000 0.040683 0.050935
-0.047100 0.126846 0.111472
-0.026800 0.129784 0.128058
-0.047100 0.132853 0.109573
-0.026500 0.136022 0.125561
-0.031400 0.140728 0.134142
-0.006700 0.137380 0.133837
-0.006800 0.130536 0.136736
-0.055400 0.132072 0.100800
-0.071800 0.124817 0.070896
-0.056000 0.126035 0.102604
-0.072300 0.120115 0.072278
0.037800 0.209925 -0.019158
0.021200 0.201109 -0.038080
0.075400 0.143144 -0.018071
0.081700 0.103514 -0.009734
0.047700 0.092419 -0.053107
0.043400 0.132513 -0.056662
0.035100 0.169084 -0.049139
0.061200 0.176277 -0.021417
0.038400 0.217402 0.004488
0.049800 0.198658 0.054990
0.062400 0.168696 0.080303
0.081200 0.156481 0.033718
0.065100 0.189289 0.020720
0.080800 0.128111 0.074678
0.087700 0.116993 0.047150
0.031500 0.222487 0.029520
0.045000 -0.002284 -0.023577
0.047900 0.039918 -0.038706
0.081000 0.050655 0.003207
0.081300 0.004523 0.016852
0.087800 0.063045 0.058966
0.086700 0.011186 0.072744
0.065100 0.125515 0.107593
0.069800 0.072047 0.114958
0.081300 0.119595 0.077267
0.064400 0.014022 0.122505
0.031700 0.130677 0.137845
0.036000 0.077312 0.150840
0.052000 0.128040 0.122212
0.031300 0.011247 0.158833
0.011700 0.131428 0.146522
0.031100 0.005915 0.155904
0.062000 0.008792 0.121222
0.078000 0.000403 0.019413
0.083200 0.006529 0.073273
0.043200 -0.006022 -0.019144
0.011600 0.142086 0.142417
0.016800 0.230010 0.040041
0.031200 0.177729 0.113840
0.027700 0.206216 0.079555
0.045700 0.151802 0.115432
0.020800 0.025408 0.142922
0.051500 0.025103 0.109456
0.035600 0.006942 -0.006672
0.060400 0.013735 0.022434
0.067200 0.019188 0.066543
0.052000 0.137861 0.119106
0.064500 0.135270 0.104613
0.047100 0.126846 0.111472
0.026800 0.129784 0.128058
0.047100 0.132853 0.109573
0.026500 0.136022 0.125561
0.031400 0.140728 0.134142
0.006700 0.137380 0.133837
0.006800 0.130536 0.136736
0.055400 0.132072 0.100800
0.071800 0.124817 0.070896
0.056000 0.126035 0.102604
0.072300 0.120115 0.072278
-0.087631 0.202430 0.040567
-0.060341 0.183757 0.039592
-0.049199 0.204110 0.011246
-0.074102 0.217150 0.015424
-0.103298 0.188292 0.018461
-0.073184 0.161945 0.011505
-0.090870 0.201776 -0.004823
-0.058955 0.183549 -0.012919
-0.106115 0.228819 0.034840
-0.088698 0.232300 0.015511
-0.123237 0.222721 0.018693
-0.108550 0.224687 -0.000728
-0.091843 0.257604 0.009140
-0.106092 0.263220 0.023534
-0.120767 0.261462 0.010281
-0.108273 0.255657 -0.004492
-0.098193 0.291204 0.006648
-0.087951 0.285570 -0.004168
-0.109355 0.291195 -0.003903
-0.099912 0.285603 -0.014629
-0.085371 0.312800 -0.014500
-0.092061 0.315134 -0.006683
-0.099570 0.316514 -0.013675
-0.093159 0.314245 -0.021200
-0.088293 0.341615 -0.016279
-0.084157 0.342437 -0.021004
-0.093124 0.342304 -0.020432
-0.089000 0.343228 -0.025146
-0.087200 0.364746 -0.019769
-0.089800 0.362966 -0.017108
-0.092800 0.363165 -0.019793
-0.090200 0.364916 -0.022549
-0.094900 0.380783 -0.015821
0.087631 0.202430 0.040567
0.074102 0.217150 0.015424
0.049199 0.204110 0.011246
0.060341 0.183757 0.039592
0.103298 0.188292 0.018461
0.073184 0.161945 0.011505
0.090870 0.201776 -0.004823
0.058955 0.183549 -0.012919
0.106115 0.228819 0.034840
0.088698 0.232300 0.015511
0.123237 0.222721 0.018693
0.108550 0.224687 -0.000728
0.106092 0.263220 0.023534
0.091843 0.257604 0.009140
0.120767 0.261462 0.010281
0.108273 0.255657 -0.004492
0.098193 0.291204 0.006648
0.087951 0.285570 -0.004168
0.109355 0.291195 -0.003903
0.099912 0.285603 -0.014629
0.092061 0.315134 -0.006683
0.085371 0.312800 -0.014500
0.099570 0.316514 -0.013675
0.093159 0.314245 -0.021200
0.088293 0.341615 -0.016279
0.084157 0.342437 -0.021004
0.093124 0.342304 -0.020432
0.089000 0.343228 -0.025146
0.089800 0.362966 -0.017108
0.087200 0.364746 -0.019769
0.092800 0.363165 -0.019793
0.090200 0.364916 -0.022549
0.094900 0.380783 -0.015821
</float_array>
          <technique_common>
            <accessor source="#Horned_Helmet_of_Gold_ground-POSITION-array" count="203" stride="3">
              <param name="X" type="float"/>
              <param name="Y" type="float"/>
              <param name="Z" type="float"/>
            </accessor>
          </technique_common>
        </source>
        <source id="Horned_Helmet_of_Gold_ground-Normal0">
          <float_array id="Horned_Helmet_of_Gold_ground-Normal0-array" count="3510">
0.000000 0.948575 -0.316552
-0.329988 0.549373 -0.767657
-0.604604 0.642595 -0.470666
-0.541707 0.126199 -0.831040
-0.928065 -0.019139 -0.371926
-0.882172 0.192571 -0.429755
-0.928065 -0.019139 -0.371926
-0.541707 0.126199 -0.831040
-0.581995 -0.114787 -0.805050
-0.472912 0.360708 -0.803893
-0.882172 0.192571 -0.429755
-0.776630 0.412294 -0.476298
-0.882172 0.192571 -0.429755
-0.472912 0.360708 -0.803893
-0.541707 0.126199 -0.831040
-0.581995 -0.114787 -0.805050
0.000000 0.100139 -0.994974
0.000000 -0.145296 -0.989388
0.000000 0.100139 -0.994974
-0.581995 -0.114787 -0.805050
-0.541707 0.126199 -0.831040
-0.472912 0.360708 -0.803893
0.000000 0.100139 -0.994974
-0.541707 0.126199 -0.831040
0.000000 0.100139 -0.994974
-0.472912 0.360708 -0.803893
0.000000 0.359353 -0.933202
-0.604604 0.642595 -0.470666
-0.651772 0.747745 -0.126769
0.000000 0.948575 -0.316552
-0.836692 0.547201 -0.022755
-0.943481 0.330211 0.028350
-0.713465 0.645982 0.271431
-0.713465 0.645982 0.271431
-0.943481 0.330211 0.028350
-0.784043 0.490978 0.379760
-0.784043 0.490978 0.379760
-0.943481 0.330211 0.028350
-0.935271 0.251173 0.249361
-0.928065 -0.019139 -0.371926
-0.943481 0.330211 0.028350
-0.882172 0.192571 -0.429755
-0.943481 0.330211 0.028350
-0.928065 -0.019139 -0.371926
-0.995490 0.087513 0.036616
-0.776630 0.412294 -0.476298
-0.943481 0.330211 0.028350
-0.836692 0.547201 -0.022755
-0.943481 0.330211 0.028350
-0.776630 0.412294 -0.476298
-0.882172 0.192571 -0.429755
-0.651772 0.747745 -0.126769
-0.836692 0.547201 -0.022755
-0.591266 0.799371 0.106821
-0.591266 0.799371 0.106821
-0.836692 0.547201 -0.022755
-0.713465 0.645982 0.271431
-0.604604 0.642595 -0.470666
-0.836692 0.547201 -0.022755
-0.651772 0.747745 -0.126769
-0.836692 0.547201 -0.022755
-0.604604 0.642595 -0.470666
-0.776630 0.412294 -0.476298
-0.604604 0.642595 -0.470666
-0.472912 0.360708 -0.803893
-0.776630 0.412294 -0.476298
-0.472912 0.360708 -0.803893
-0.604604 0.642595 -0.470666
-0.329988 0.549373 -0.767657
0.000000 0.359353 -0.933202
-0.329988 0.549373 -0.767657
0.000000 0.548653 -0.836050
-0.329988 0.549373 -0.767657
0.000000 0.359353 -0.933202
-0.472912 0.360708 -0.803893
0.000000 0.548653 -0.836050
-0.329988 0.549373 -0.767657
0.000000 0.948575 -0.316552
0.000000 -0.591368 -0.806402
-0.530709 -0.534513 -0.657757
0.000000 -0.302764 -0.953065
-0.530709 -0.534513 -0.657757
-0.595020 -0.258684 -0.760943
0.000000 -0.302764 -0.953065
-0.595020 -0.258684 -0.760943
0.000000 -0.145296 -0.989388
0.000000 -0.302764 -0.953065
0.000000 -0.145296 -0.989388
-0.595020 -0.258684 -0.760943
-0.581995 -0.114787 -0.805050
-0.530709 -0.534513 -0.657757
-0.921607 -0.113018 -0.371306
-0.595020 -0.258684 -0.760943
-0.921607 -0.113018 -0.371306
-0.530709 -0.534513 -0.657757
-0.862213 -0.397408 -0.314096
-0.581995 -0.114787 -0.805050
-0.595020 -0.258684 -0.760943
-0.928065 -0.019139 -0.371926
-0.928065 -0.019139 -0.371926
-0.595020 -0.258684 -0.760943
-0.921607 -0.113018 -0.371306
-0.996227 0.004131 0.086691
-0.862213 -0.397408 -0.314096
-0.941243 -0.291774 0.170089
-0.862213 -0.397408 -0.314096
-0.996227 0.004131 0.086691
-0.921607 -0.113018 -0.371306
-0.921607 -0.113018 -0.371306
-0.995490 0.087513 0.036616
-0.928065 -0.019139 -0.371926
-0.995490 0.087513 0.036616
-0.921607 -0.113018 -0.371306
-0.996227 0.004131 0.086691
-0.797311 0.173869 0.577983
-0.956273 0.081489 0.280894
-0.852638 0.061814 0.518832
-0.852638 0.061814 0.518832
-0.941243 -0.291774 0.170089
-0.810001 -0.229696 0.539572
-0.941243 -0.291774 0.170089
-0.852638 0.061814 0.518832
-0.996227 0.004131 0.086691
-0.505023 0.243988 0.827902
-0.713176 0.188455 0.675177
-0.588213 0.136895 0.797035
-0.588213 0.136895 0.797035
-0.810001 -0.229696 0.539572
-0.601092 -0.176033 0.779551
-0.810001 -0.229696 0.539572
-0.588213 0.136895 0.797035
-0.852638 0.061814 0.518832
-0.601092 -0.176033 0.779551
0.000000 0.193436 0.981113
-0.588213 0.136895 0.797035
0.000000 0.193436 0.981113
-0.601092 -0.176033 0.779551
0.000000 -0.231995 0.972717
-0.588213 0.136895 0.797035
0.000000 0.193436 0.981113
-0.433824 0.280527 0.856214
0.000000 -0.231995 0.972717
-0.601092 -0.176033 0.779551
-0.234591 -0.964714 0.119557
0.000000 -0.231995 0.972717
-0.234591 -0.964714 0.119557
0.000000 -0.954239 0.299045
-0.234591 -0.964714 0.119557
-0.810001 -0.229696 0.539572
-0.189696 -0.975626 0.110314
-0.810001 -0.229696 0.539572
-0.234591 -0.964714 0.119557
-0.601092 -0.176033 0.779551
-0.941243 -0.291774 0.170089
-0.862213 -0.397408 -0.314096
-0.236890 -0.970921 0.034578
-0.941243 -0.291774 0.170089
-0.236890 -0.970921 0.034578
-0.226403 -0.962247 0.151071
-0.810001 -0.229696 0.539572
-0.941243 -0.291774 0.170089
-0.189696 -0.975626 0.110314
-0.189696 -0.975626 0.110314
-0.941243 -0.291774 0.170089
-0.226403 -0.962247 0.151071
-0.147304 -0.989089 0.002230
-0.862213 -0.397408 -0.314096
-0.530709 -0.534513 -0.657757
-0.862213 -0.397408 -0.314096
-0.147304 -0.989089 0.002230
-0.236890 -0.970921 0.034578
-0.530709 -0.534513 -0.657757
0.000000 -0.998048 -0.062457
-0.147304 -0.989089 0.002230
0.000000 -0.998048 -0.062457
-0.530709 -0.534513 -0.657757
0.000000 -0.591368 -0.806402
-0.403700 0.435297 0.804700
0.000000 0.328765 0.944412
0.000000 0.461201 0.887296
0.000000 0.328765 0.944412
-0.403700 0.435297 0.804700
-0.433824 0.280527 0.856214
-0.591266 0.799371 0.106821
-0.335484 0.906423 0.256609
0.000000 0.948575 -0.316552
0.000000 0.948575 -0.316552
-0.651772 0.747745 -0.126769
-0.591266 0.799371 0.106821
0.000000 0.946718 0.322064
0.000000 0.948575 -0.316552
-0.335484 0.906423 0.256609
-0.784043 0.490978 0.379760
-0.485209 0.747840 0.453108
-0.713465 0.645982 0.271431
-0.485209 0.747840 0.453108
-0.784043 0.490978 0.379760
-0.483408 0.587851 0.648651
-0.483408 0.587851 0.648651
-0.784043 0.490978 0.379760
-0.654288 0.431710 0.620914
0.000000 0.645539 0.763727
-0.483408 0.587851 0.648651
-0.403700 0.435297 0.804700
-0.483408 0.587851 0.648651
0.000000 0.827643 0.561255
-0.485209 0.747840 0.453108
0.000000 0.827643 0.561255
-0.483408 0.587851 0.648651
0.000000 0.645539 0.763727
-0.713465 0.645982 0.271431
-0.335484 0.906423 0.256609
-0.591266 0.799371 0.106821
-0.335484 0.906423 0.256609
-0.713465 0.645982 0.271431
-0.485209 0.747840 0.453108
0.000000 0.827643 0.561255
0.000000 0.946718 0.322064
-0.485209 0.747840 0.453108
-0.485209 0.747840 0.453108
0.000000 0.946718 0.322064
-0.335484 0.906423 0.256609
0.414701 -0.668627 -0.617220
-0.189696 -0.975626 0.110314
0.617710 -0.695270 -0.367470
-0.189696 -0.975626 0.110314
0.414701 -0.668627 -0.617220
-0.234591 -0.964714 0.119557
0.414701 -0.668627 -0.617220
0.000000 -0.954239 0.299045
-0.234591 -0.964714 0.119557
0.000000 -0.954239 0.299045
0.414701 -0.668627 -0.617220
0.000000 -0.735442 -0.677588
-0.147304 -0.989089 0.002230
0.000000 -0.727442 0.686169
0.323900 -0.744191 0.584182
0.000000 -0.727442 0.686169
-0.147304 -0.989089 0.002230
0.000000 -0.998048 -0.062457
-0.147304 -0.989089 0.002230
0.529781 -0.763026 0.370302
-0.236890 -0.970921 0.034578
0.529781 -0.763026 0.370302
-0.147304 -0.989089 0.002230
0.323900 -0.744191 0.584182
0.638093 -0.767848 0.056979
-0.236890 -0.970921 0.034578
0.529781 -0.763026 0.370302
-0.236890 -0.970921 0.034578
0.638093 -0.767848 0.056979
-0.226403 -0.962247 0.151071
0.617710 -0.695270 -0.367470
-0.226403 -0.962247 0.151071
0.638093 -0.767848 0.056979
-0.226403 -0.962247 0.151071
0.617710 -0.695270 -0.367470
-0.189696 -0.975626 0.110314
-0.691619 0.366077 0.622616
-0.774881 0.347309 0.528144
-0.797311 0.173869 0.577983
-0.691619 0.366077 0.622616
-0.797311 0.173869 0.577983
-0.713176 0.188455 0.675177
-0.852638 0.061814 0.518832
-0.713176 0.188455 0.675177
-0.797311 0.173869 0.577983
-0.071599 -0.981311 -0.178614
0.215295 -0.973994 -0.070593
0.000000 -0.987345 0.158589
0.000000 -0.978685 -0.205367
-0.071599 -0.981311 -0.178614
0.000000 -0.987345 0.158589
0.139596 -0.889738 0.434601
0.000000 -0.883274 0.468858
0.000000 -0.987345 0.158589
0.274192 -0.917698 0.287489
0.139596 -0.889738 0.434601
0.000000 -0.987345 0.158589
0.321386 -0.942870 0.087794
0.274192 -0.917698 0.287489
0.000000 -0.987345 0.158589
0.215295 -0.973994 -0.070593
0.321386 -0.942870 0.087794
0.000000 -0.987345 0.158589
-0.956273 0.081489 0.280894
-0.935271 0.251173 0.249361
-0.995490 0.087513 0.036616
-0.935271 0.251173 0.249361
-0.943481 0.330211 0.028350
-0.995490 0.087513 0.036616
-0.996227 0.004131 0.086691
-0.956273 0.081489 0.280894
-0.995490 0.087513 0.036616
-0.433824 0.280527 0.856214
0.000000 0.193436 0.981113
0.000000 0.328765 0.944412
0.000000 0.645539 0.763727
-0.403700 0.435297 0.804700
0.000000 0.461201 0.887296
-0.031100 0.991473 -0.126547
-0.025601 0.994149 -0.104941
-0.035801 0.991665 -0.123767
-0.025601 0.994149 -0.104941
-0.031100 0.991473 -0.126547
-0.020899 0.994233 -0.105187
0.907426 0.126705 0.400655
0.907426 0.126705 0.400655
0.907426 0.126705 0.400655
0.907426 0.126705 0.400655
0.907426 0.126705 0.400655
0.907426 0.126705 0.400655
-0.162999 -0.905909 0.390845
-0.140104 -0.900534 0.411593
-0.163496 -0.904913 0.392940
-0.140104 -0.900534 0.411593
-0.139105 -0.899872 0.413378
-0.163496 -0.904913 0.392940
-0.140104 -0.900534 0.411593
-0.114301 -0.897327 0.426309
-0.139105 -0.899872 0.413378
-0.114301 -0.897327 0.426309
-0.140104 -0.900534 0.411593
-0.114301 -0.897327 0.426309
-0.889183 -0.161219 -0.428209
-0.889566 -0.162023 -0.427107
-0.887519 -0.158437 -0.432675
-0.889183 -0.161219 -0.428209
-0.891590 -0.165594 -0.421481
-0.889566 -0.162023 -0.427107
-0.000200 0.995729 -0.092329
-0.025601 0.994149 -0.104941
-0.020899 0.994233 -0.105187
-0.025601 0.994149 -0.104941
-0.000200 0.995729 -0.092329
-0.000200 0.995729 -0.092329
-0.192807 -0.924654 0.328392
-0.192807 -0.924654 0.328392
-0.192807 -0.924654 0.328392
-0.192807 -0.924654 0.328392
-0.192807 -0.924654 0.328392
-0.192807 -0.924654 0.328392
-0.460176 -0.234511 -0.856296
-0.444295 -0.217181 -0.869157
-0.452113 -0.225699 -0.862933
-0.444295 -0.217181 -0.869157
-0.460176 -0.234511 -0.856296
-0.454482 -0.228243 -0.861018
-0.126195 0.984257 -0.123745
-0.126195 0.984257 -0.123745
-0.126195 0.984257 -0.123745
-0.126195 0.984257 -0.123745
-0.126195 0.984257 -0.123745
-0.126195 0.984257 -0.123745
0.449009 0.240472 0.860561
0.453205 0.232595 0.860526
0.456908 0.225736 0.860394
0.456908 0.225736 0.860394
0.453205 0.232595 0.860526
0.463508 0.213153 0.860073
-0.784043 0.490978 0.379760
-0.935271 0.251173 0.249361
-0.774881 0.347309 0.528144
-0.852638 0.061814 0.518832
-0.956273 0.081489 0.280894
-0.996227 0.004131 0.086691
-0.588213 0.136895 0.797035
-0.713176 0.188455 0.675177
-0.852638 0.061814 0.518832
-0.588213 0.136895 0.797035
-0.433824 0.280527 0.856214
-0.505023 0.243988 0.827902
-0.483408 0.587851 0.648651
-0.654288 0.431710 0.620914
-0.474195 0.434152 0.765931
-0.403700 0.435297 0.804700
-0.483408 0.587851 0.648651
-0.474195 0.434152 0.765931
-0.774881 0.347309 0.528144
-0.654288 0.431710 0.620914
-0.784043 0.490978 0.379760
-0.654288 0.431710 0.620914
-0.774881 0.347309 0.528144
-0.691619 0.366077 0.622616
-0.654288 0.431710 0.620914
-0.691619 0.366077 0.622616
-0.474195 0.434152 0.765931
0.000000 0.948575 -0.316552
0.604604 0.642595 -0.470666
0.329988 0.549373 -0.767657
0.928065 -0.019139 -0.371926
0.541707 0.126199 -0.831040
0.882172 0.192571 -0.429755
0.541707 0.126199 -0.831040
0.928065 -0.019139 -0.371926
0.581995 -0.114787 -0.805050
0.776630 0.412294 -0.476298
0.882172 0.192571 -0.429755
0.472912 0.360708 -0.803893
0.882172 0.192571 -0.429755
0.541707 0.126199 -0.831040
0.472912 0.360708 -0.803893
0.581995 -0.114787 -0.805050
0.000000 0.100139 -0.994974
0.541707 0.126199 -0.831040
0.000000 0.100139 -0.994974
0.581995 -0.114787 -0.805050
0.000000 -0.145296 -0.989388
0.541707 0.126199 -0.831040
0.000000 0.100139 -0.994974
0.472912 0.360708 -0.803893
0.000000 0.100139 -0.994974
0.000000 0.359353 -0.933202
0.472912 0.360708 -0.803893
0.604604 0.642595 -0.470666
0.000000 0.948575 -0.316552
0.651772 0.747745 -0.126769
0.836692 0.547201 -0.022755
0.713465 0.645982 0.271431
0.943481 0.330211 0.028350
0.713465 0.645982 0.271431
0.784043 0.490978 0.379760
0.943481 0.330211 0.028350
0.784043 0.490978 0.379760
0.935271 0.251173 0.249361
0.943481 0.330211 0.028350
0.928065 -0.019139 -0.371926
0.943481 0.330211 0.028350
0.995490 0.087513 0.036616
0.943481 0.330211 0.028350
0.928065 -0.019139 -0.371926
0.882172 0.192571 -0.429755
0.943481 0.330211 0.028350
0.776630 0.412294 -0.476298
0.836692 0.547201 -0.022755
0.776630 0.412294 -0.476298
0.943481 0.330211 0.028350
0.882172 0.192571 -0.429755
0.651772 0.747745 -0.126769
0.591266 0.799371 0.106821
0.836692 0.547201 -0.022755
0.591266 0.799371 0.106821
0.713465 0.645982 0.271431
0.836692 0.547201 -0.022755
0.836692 0.547201 -0.022755
0.604604 0.642595 -0.470666
0.651772 0.747745 -0.126769
0.604604 0.642595 -0.470666
0.836692 0.547201 -0.022755
0.776630 0.412294 -0.476298
0.472912 0.360708 -0.803893
0.604604 0.642595 -0.470666
0.776630 0.412294 -0.476298
0.604604 0.642595 -0.470666
0.472912 0.360708 -0.803893
0.329988 0.549373 -0.767657
0.000000 0.359353 -0.933202
0.329988 0.549373 -0.767657
0.472912 0.360708 -0.803893
0.329988 0.549373 -0.767657
0.000000 0.359353 -0.933202
0.000000 0.548653 -0.836050
0.000000 0.548653 -0.836050
0.000000 0.948575 -0.316552
0.329988 0.549373 -0.767657
0.000000 -0.591368 -0.806402
0.000000 -0.302764 -0.953065
0.530709 -0.534513 -0.657757
0.530709 -0.534513 -0.657757
0.000000 -0.302764 -0.953065
0.595020 -0.258684 -0.760943
0.595020 -0.258684 -0.760943
0.000000 -0.145296 -0.989388
0.581995 -0.114787 -0.805050
0.000000 -0.145296 -0.989388
0.595020 -0.258684 -0.760943
0.000000 -0.302764 -0.953065
0.530709 -0.534513 -0.657757
0.921607 -0.113018 -0.371306
0.862213 -0.397408 -0.314096
0.921607 -0.113018 -0.371306
0.530709 -0.534513 -0.657757
0.595020 -0.258684 -0.760943
0.928065 -0.019139 -0.371926
0.921607 -0.113018 -0.371306
0.595020 -0.258684 -0.760943
0.928065 -0.019139 -0.371926
0.595020 -0.258684 -0.760943
0.581995 -0.114787 -0.805050
0.996227 0.004131 0.086691
0.941243 -0.291774 0.170089
0.862213 -0.397408 -0.314096
0.996227 0.004131 0.086691
0.862213 -0.397408 -0.314096
0.921607 -0.113018 -0.371306
0.921607 -0.113018 -0.371306
0.995490 0.087513 0.036616
0.996227 0.004131 0.086691
0.995490 0.087513 0.036616
0.921607 -0.113018 -0.371306
0.928065 -0.019139 -0.371926
0.797311 0.173869 0.577983
0.852638 0.061814 0.518832
0.956273 0.081489 0.280894
0.852638 0.061814 0.518832
0.810001 -0.229696 0.539572
0.941243 -0.291774 0.170089
0.852638 0.061814 0.518832
0.941243 -0.291774 0.170089
0.996227 0.004131 0.086691
0.505023 0.243988 0.827902
0.588213 0.136895 0.797035
0.713176 0.188455 0.675177
0.588213 0.136895 0.797035
0.810001 -0.229696 0.539572
0.852638 0.061814 0.518832
0.810001 -0.229696 0.539572
0.588213 0.136895 0.797035
0.601092 -0.176033 0.779551
0.601092 -0.176033 0.779551
0.588213 0.136895 0.797035
0.000000 0.193436 0.981113
0.000000 0.193436 0.981113
0.000000 -0.231995 0.972717
0.601092 -0.176033 0.779551
0.588213 0.136895 0.797035
0.433824 0.280527 0.856214
0.000000 0.193436 0.981113
0.000000 -0.954239 0.299045
0.234591 -0.964714 0.119557
0.000000 -0.231995 0.972717
0.601092 -0.176033 0.779551
0.000000 -0.231995 0.972717
0.234591 -0.964714 0.119557
0.234591 -0.964714 0.119557
0.810001 -0.229696 0.539572
0.601092 -0.176033 0.779551
0.810001 -0.229696 0.539572
0.234591 -0.964714 0.119557
0.189696 -0.975626 0.110314
0.226403 -0.962247 0.151071
0.236890 -0.970921 0.034578
0.941243 -0.291774 0.170089
0.941243 -0.291774 0.170089
0.236890 -0.970921 0.034578
0.862213 -0.397408 -0.314096
0.941243 -0.291774 0.170089
0.810001 -0.229696 0.539572
0.189696 -0.975626 0.110314
0.189696 -0.975626 0.110314
0.226403 -0.962247 0.151071
0.941243 -0.291774 0.170089
0.236890 -0.970921 0.034578
0.147304 -0.989089 0.002230
0.862213 -0.397408 -0.314096
0.530709 -0.534513 -0.657757
0.862213 -0.397408 -0.314096
0.147304 -0.989089 0.002230
0.000000 -0.591368 -0.806402
0.530709 -0.534513 -0.657757
0.000000 -0.998048 -0.062457
0.000000 -0.998048 -0.062457
0.530709 -0.534513 -0.657757
0.147304 -0.989089 0.002230
0.403700 0.435297 0.804700
0.000000 0.328765 0.944412
0.433824 0.280527 0.856214
0.000000 0.328765 0.944412
0.403700 0.435297 0.804700
0.000000 0.461201 0.887296
0.591266 0.799371 0.106821
0.000000 0.948575 -0.316552
0.335484 0.906423 0.256609
0.000000 0.948575 -0.316552
0.591266 0.799371 0.106821
0.651772 0.747745 -0.126769
0.000000 0.946718 0.322064
0.335484 0.906423 0.256609
0.000000 0.948575 -0.316552
0.485209 0.747840 0.453108
0.784043 0.490978 0.379760
0.713465 0.645982 0.271431
0.784043 0.490978 0.379760
0.485209 0.747840 0.453108
0.483408 0.587851 0.648651
0.483408 0.587851 0.648651
0.654288 0.431710 0.620914
0.784043 0.490978 0.379760
0.000000 0.645539 0.763727
0.403700 0.435297 0.804700
0.483408 0.587851 0.648651
0.483408 0.587851 0.648651
0.000000 0.827643 0.561255
0.000000 0.645539 0.763727
0.000000 0.827643 0.561255
0.483408 0.587851 0.648651
0.485209 0.747840 0.453108
0.713465 0.645982 0.271431
0.591266 0.799371 0.106821
0.335484 0.906423 0.256609
0.335484 0.906423 0.256609
0.485209 0.747840 0.453108
0.713465 0.645982 0.271431
0.000000 0.827643 0.561255
0.485209 0.747840 0.453108
0.000000 0.946718 0.322064
0.485209 0.747840 0.453108
0.335484 0.906423 0.256609
0.000000 0.946718 0.322064
0.189696 -0.975626 0.110314
-0.414701 -0.668627 -0.617220
-0.617710 -0.695270 -0.367470
-0.414701 -0.668627 -0.617220
0.189696 -0.975626 0.110314
0.234591 -0.964714 0.119557
0.234591 -0.964714 0.119557
0.000000 -0.954239 0.299045
-0.414701 -0.668627 -0.617220
0.000000 -0.954239 0.299045
0.000000 -0.735442 -0.677588
-0.414701 -0.668627 -0.617220
0.000000 -0.998048 -0.062457
0.147304 -0.989089 0.002230
0.000000 -0.727442 0.686169
0.000000 -0.727442 0.686169
0.147304 -0.989089 0.002230
-0.323900 -0.744191 0.584182
0.147304 -0.989089 0.002230
-0.529781 -0.763026 0.370302
-0.323900 -0.744191 0.584182
-0.529781 -0.763026 0.370302
0.147304 -0.989089 0.002230
0.236890 -0.970921 0.034578
-0.638093 -0.767848 0.056979
0.236890 -0.970921 0.034578
0.226403 -0.962247 0.151071
0.236890 -0.970921 0.034578
-0.638093 -0.767848 0.056979
-0.529781 -0.763026 0.370302
-0.617710 -0.695270 -0.367470
-0.638093 -0.767848 0.056979
0.226403 -0.962247 0.151071
0.226403 -0.962247 0.151071
0.189696 -0.975626 0.110314
-0.617710 -0.695270 -0.367470
0.713176 0.188455 0.675177
0.797311 0.173869 0.577983
0.691619 0.366077 0.622616
0.691619 0.366077 0.622616
0.797311 0.173869 0.577983
0.774881 0.347309 0.528144
0.852638 0.061814 0.518832
0.797311 0.173869 0.577983
0.713176 0.188455 0.675177
0.071599 -0.981311 -0.178614
0.000000 -0.987345 0.158589
-0.215295 -0.973994 -0.070593
0.000000 -0.978685 -0.205367
0.000000 -0.987345 0.158589
0.071599 -0.981311 -0.178614
-0.139596 -0.889738 0.434601
0.000000 -0.987345 0.158589
0.000000 -0.883274 0.468858
-0.274192 -0.917698 0.287489
0.000000 -0.987345 0.158589
-0.139596 -0.889738 0.434601
-0.321386 -0.942870 0.087794
0.000000 -0.987345 0.158589
-0.274192 -0.917698 0.287489
-0.215295 -0.973994 -0.070593
0.000000 -0.987345 0.158589
-0.321386 -0.942870 0.087794
0.956273 0.081489 0.280894
0.995490 0.087513 0.036616
0.935271 0.251173 0.249361
0.935271 0.251173 0.249361
0.995490 0.087513 0.036616
0.943481 0.330211 0.028350
0.996227 0.004131 0.086691
0.995490 0.087513 0.036616
0.956273 0.081489 0.280894
0.433824 0.280527 0.856214
0.000000 0.328765 0.944412
0.000000 0.193436 0.981113
0.000000 0.645539 0.763727
0.000000 0.461201 0.887296
0.403700 0.435297 0.804700
0.031100 0.991473 -0.126547
0.025601 0.994149 -0.104941
0.020899 0.994233 -0.105187
0.025601 0.994149 -0.104941
0.031100 0.991473 -0.126547
0.035801 0.991665 -0.123767
-0.907426 0.126705 0.400655
-0.907426 0.126705 0.400655
-0.907426 0.126705 0.400655
-0.907426 0.126705 0.400655
-0.907426 0.126705 0.400655
-0.907426 0.126705 0.400655
0.163496 -0.904913 0.392940
0.140104 -0.900534 0.411593
0.162999 -0.905909 0.390845
0.140104 -0.900534 0.411593
0.163496 -0.904913 0.392940
0.139105 -0.899872 0.413378
0.114301 -0.897327 0.426309
0.140104 -0.900534 0.411593
0.139105 -0.899872 0.413378
0.140104 -0.900534 0.411593
0.114301 -0.897327 0.426309
0.114301 -0.897327 0.426309
0.889183 -0.161219 -0.428209
0.889566 -0.162023 -0.427107
0.891590 -0.165594 -0.421481
0.889183 -0.161219 -0.428209
0.887519 -0.158437 -0.432675
0.889566 -0.162023 -0.427107
0.000200 0.995729 -0.092329
0.020899 0.994233 -0.105187
0.025601 0.994149 -0.104941
0.025601 0.994149 -0.104941
0.000200 0.995729 -0.092329
0.000200 0.995729 -0.092329
0.192807 -0.924654 0.328392
0.192807 -0.924654 0.328392
0.192807 -0.924654 0.328392
0.192807 -0.924654 0.328392
0.192807 -0.924654 0.328392
0.192807 -0.924654 0.328392
0.460176 -0.234511 -0.856296
0.444295 -0.217181 -0.869157
0.454482 -0.228243 -0.861018
0.444295 -0.217181 -0.869157
0.460176 -0.234511 -0.856296
0.452113 -0.225699 -0.862933
0.126195 0.984257 -0.123745
0.126195 0.984257 -0.123745
0.126195 0.984257 -0.123745
0.126195 0.984257 -0.123745
0.126195 0.984257 -0.123745
0.126195 0.984257 -0.123745
-0.449009 0.240472 0.860561
-0.456908 0.225736 0.860394
-0.453205 0.232595 0.860526
-0.456908 0.225736 0.860394
-0.463508 0.213153 0.860073
-0.453205 0.232595 0.860526
0.784043 0.490978 0.379760
0.774881 0.347309 0.528144
0.935271 0.251173 0.249361
0.852638 0.061814 0.518832
0.996227 0.004131 0.086691
0.956273 0.081489 0.280894
0.588213 0.136895 0.797035
0.852638 0.061814 0.518832
0.713176 0.188455 0.675177
0.588213 0.136895 0.797035
0.505023 0.243988 0.827902
0.433824 0.280527 0.856214
0.483408 0.587851 0.648651
0.474195 0.434152 0.765931
0.654288 0.431710 0.620914
0.403700 0.435297 0.804700
0.474195 0.434152 0.765931
0.483408 0.587851 0.648651
0.774881 0.347309 0.528144
0.654288 0.431710 0.620914
0.691619 0.366077 0.622616
0.654288 0.431710 0.620914
0.774881 0.347309 0.528144
0.784043 0.490978 0.379760
0.654288 0.431710 0.620914
0.474195 0.434152 0.765931
0.691619 0.366077 0.622616
-0.037830 -0.105963 0.993650
0.562957 0.826153 -0.023461
-0.127955 -0.077077 0.988780
0.562957 0.826153 -0.023461
-0.037830 -0.105963 0.993650
0.442179 0.889613 -0.114310
-0.638876 -0.764267 -0.087945
-0.127955 -0.077077 0.988780
-0.739979 -0.667238 0.084999
-0.127955 -0.077077 0.988780
-0.638876 -0.764267 -0.087945
-0.037830 -0.105963 0.993650
-0.317084 -0.056177 -0.946732
-0.266543 0.040350 -0.962978
-0.638876 -0.764267 -0.087945
-0.317084 -0.056177 -0.946732
-0.638876 -0.764267 -0.087945
-0.739979 -0.667238 0.084999
-0.317084 -0.056177 -0.946732
0.562957 0.826153 -0.023461
-0.266543 0.040350 -0.962978
0.562957 0.826153 -0.023461
0.442179 0.889613 -0.114310
-0.266543 0.040350 -0.962978
-0.127955 -0.077077 0.988780
0.886595 0.462096 -0.020387
-0.230599 0.128035 0.964589
0.886595 0.462096 -0.020387
-0.127955 -0.077077 0.988780
0.562957 0.826153 -0.023461
-0.739979 -0.667238 0.084999
-0.230599 0.128035 0.964589
-0.962860 -0.228600 0.143675
-0.230599 0.128035 0.964589
-0.739979 -0.667238 0.084999
-0.127955 -0.077077 0.988780
-0.962860 -0.228600 0.143675
-0.317084 -0.056177 -0.946732
-0.739979 -0.667238 0.084999
-0.317084 -0.056177 -0.946732
-0.962860 -0.228600 0.143675
-0.347006 -0.128843 -0.928971
0.562957 0.826153 -0.023461
-0.317084 -0.056177 -0.946732
0.886595 0.462096 -0.020387
0.886595 0.462096 -0.020387
-0.317084 -0.056177 -0.946732
-0.347006 -0.128843 -0.928971
-0.053487 0.391928 0.918440
-0.230599 0.128035 0.964589
0.886595 0.462096 -0.020387
-0.053487 0.391928 0.918440
0.886595 0.462096 -0.020387
0.999948 0.000737 -0.010137
-0.972640 0.217636 0.081284
-0.230599 0.128035 0.964589
-0.053487 0.391928 0.918440
-0.972640 0.217636 0.081284
-0.962860 -0.228600 0.143675
-0.230599 0.128035 0.964589
-0.972640 0.217636 0.081284
-0.347006 -0.128843 -0.928971
-0.962860 -0.228600 0.143675
-0.347006 -0.128843 -0.928971
-0.972640 0.217636 0.081284
-0.194495 -0.193498 -0.961629
0.886595 0.462096 -0.020387
-0.194495 -0.193498 -0.961629
0.999948 0.000737 -0.010137
-0.194495 -0.193498 -0.961629
0.886595 0.462096 -0.020387
-0.347006 -0.128843 -0.928971
0.999948 0.000737 -0.010137
0.983544 -0.160344 -0.083256
0.115879 0.479170 0.870039
0.115879 0.479170 0.870039
-0.053487 0.391928 0.918440
0.999948 0.000737 -0.010137
-0.053487 0.391928 0.918440
0.115879 0.479170 0.870039
-0.936770 0.346817 -0.046684
-0.936770 0.346817 -0.046684
-0.972640 0.217636 0.081284
-0.053487 0.391928 0.918440
-0.972640 0.217636 0.081284
-0.936770 0.346817 -0.046684
-0.089164 -0.265746 -0.959911
-0.089164 -0.265746 -0.959911
-0.194495 -0.193498 -0.961629
-0.972640 0.217636 0.081284
-0.089164 -0.265746 -0.959911
0.999948 0.000737 -0.010137
-0.194495 -0.193498 -0.961629
0.999948 0.000737 -0.010137
-0.089164 -0.265746 -0.959911
0.983544 -0.160344 -0.083256
0.983544 -0.160344 -0.083256
0.160219 0.400902 0.902002
0.115879 0.479170 0.870039
0.160219 0.400902 0.902002
0.983544 -0.160344 -0.083256
0.982558 -0.120380 -0.141733
-0.950968 0.307866 -0.029638
0.115879 0.479170 0.870039
0.160219 0.400902 0.902002
0.115879 0.479170 0.870039
-0.950968 0.307866 -0.029638
-0.936770 0.346817 -0.046684
-0.055807 -0.177944 -0.982457
-0.936770 0.346817 -0.046684
-0.950968 0.307866 -0.029638
-0.936770 0.346817 -0.046684
-0.055807 -0.177944 -0.982457
-0.089164 -0.265746 -0.959911
0.983544 -0.160344 -0.083256
-0.055807 -0.177944 -0.982457
0.982558 -0.120380 -0.141733
-0.055807 -0.177944 -0.982457
0.983544 -0.160344 -0.083256
-0.089164 -0.265746 -0.959911
0.982558 -0.120380 -0.141733
0.981216 -0.023962 -0.191421
0.165726 0.236888 0.957298
0.165726 0.236888 0.957298
0.160219 0.400902 0.902002
0.982558 -0.120380 -0.141733
0.160219 0.400902 0.902002
0.165726 0.236888 0.957298
-0.986571 0.160240 -0.031645
-0.986571 0.160240 -0.031645
-0.950968 0.307866 -0.029638
0.160219 0.400902 0.902002
-0.986571 0.160240 -0.031645
-0.055807 -0.177944 -0.982457
-0.950968 0.307866 -0.029638
-0.055807 -0.177944 -0.982457
-0.986571 0.160240 -0.031645
0.017092 -0.047513 -0.998724
-0.055807 -0.177944 -0.982457
0.981216 -0.023962 -0.191421
0.982558 -0.120380 -0.141733
0.981216 -0.023962 -0.191421
-0.055807 -0.177944 -0.982457
0.017092 -0.047513 -0.998724
0.108885 0.020717 0.993838
0.165726 0.236888 0.957298
0.981216 -0.023962 -0.191421
0.981216 -0.023962 -0.191421
0.970657 0.211013 -0.115322
0.108885 0.020717 0.993838
-0.986571 0.160240 -0.031645
0.108885 0.020717 0.993838
-0.999552 -0.015812 -0.025427
0.108885 0.020717 0.993838
-0.986571 0.160240 -0.031645
0.165726 0.236888 0.957298
-0.999552 -0.015812 -0.025427
0.017092 -0.047513 -0.998724
-0.986571 0.160240 -0.031645
0.017092 -0.047513 -0.998724
-0.999552 -0.015812 -0.025427
0.034148 0.188110 -0.981554
0.970657 0.211013 -0.115322
0.981216 -0.023962 -0.191421
0.017092 -0.047513 -0.998724
0.017092 -0.047513 -0.998724
0.034148 0.188110 -0.981554
0.970657 0.211013 -0.115322
0.970657 0.211013 -0.115322
-0.264558 0.933804 0.240871
0.108885 0.020717 0.993838
0.108885 0.020717 0.993838
-0.264558 0.933804 0.240871
-0.999552 -0.015812 -0.025427
-0.999552 -0.015812 -0.025427
-0.264558 0.933804 0.240871
0.034148 0.188110 -0.981554
0.034148 0.188110 -0.981554
-0.264558 0.933804 0.240871
0.970657 0.211013 -0.115322
-0.562957 0.826153 -0.023461
0.037830 -0.105961 0.993650
0.127955 -0.077076 0.988780
0.037830 -0.105961 0.993650
-0.562957 0.826153 -0.023461
-0.442179 0.889613 -0.114310
0.638875 -0.764267 -0.087944
0.127955 -0.077076 0.988780
0.037830 -0.105961 0.993650
0.127955 -0.077076 0.988780
0.638875 -0.764267 -0.087944
0.739979 -0.667238 0.084999
0.739979 -0.667238 0.084999
0.638875 -0.764267 -0.087944
0.317084 -0.056177 -0.946732
0.317084 -0.056177 -0.946732
0.638875 -0.764267 -0.087944
0.266543 0.040349 -0.962978
0.317084 -0.056177 -0.946732
0.266543 0.040349 -0.962978
-0.562957 0.826153 -0.023461
-0.562957 0.826153 -0.023461
0.266543 0.040349 -0.962978
-0.442179 0.889613 -0.114310
0.127955 -0.077076 0.988780
-0.886596 0.462096 -0.020386
-0.562957 0.826153 -0.023461
-0.886596 0.462096 -0.020386
0.127955 -0.077076 0.988780
0.230600 0.128034 0.964589
0.739979 -0.667238 0.084999
0.230600 0.128034 0.964589
0.127955 -0.077076 0.988780
0.230600 0.128034 0.964589
0.739979 -0.667238 0.084999
0.962860 -0.228600 0.143674
0.962860 -0.228600 0.143674
0.317084 -0.056177 -0.946732
0.347006 -0.128843 -0.928971
0.317084 -0.056177 -0.946732
0.962860 -0.228600 0.143674
0.739979 -0.667238 0.084999
-0.886596 0.462096 -0.020386
0.347006 -0.128843 -0.928971
0.317084 -0.056177 -0.946732
-0.886596 0.462096 -0.020386
0.317084 -0.056177 -0.946732
-0.562957 0.826153 -0.023461
0.053488 0.391928 0.918440
-0.886596 0.462096 -0.020386
0.230600 0.128034 0.964589
-0.886596 0.462096 -0.020386
0.053488 0.391928 0.918440
-0.999948 0.000737 -0.010137
0.053488 0.391928 0.918440
0.230600 0.128034 0.964589
0.972639 0.217636 0.081284
0.972639 0.217636 0.081284
0.230600 0.128034 0.964589
0.962860 -0.228600 0.143674
0.972639 0.217636 0.081284
0.347006 -0.128843 -0.928971
0.194495 -0.193498 -0.961629
0.347006 -0.128843 -0.928971
0.972639 0.217636 0.081284
0.962860 -0.228600 0.143674
-0.886596 0.462096 -0.020386
0.194495 -0.193498 -0.961629
0.347006 -0.128843 -0.928971
0.194495 -0.193498 -0.961629
-0.886596 0.462096 -0.020386
-0.999948 0.000737 -0.010137
-0.983544 -0.160344 -0.083256
-0.999948 0.000737 -0.010137
-0.115879 0.479171 0.870039
-0.115879 0.479171 0.870039
-0.999948 0.000737 -0.010137
0.053488 0.391928 0.918440
-0.115879 0.479171 0.870039
0.053488 0.391928 0.918440
0.936770 0.346818 -0.046684
0.936770 0.346818 -0.046684
0.053488 0.391928 0.918440
0.972639 0.217636 0.081284
0.972639 0.217636 0.081284
0.089164 -0.265746 -0.959911
0.936770 0.346818 -0.046684
0.089164 -0.265746 -0.959911
0.972639 0.217636 0.081284
0.194495 -0.193498 -0.961629
-0.999948 0.000737 -0.010137
0.089164 -0.265746 -0.959911
0.194495 -0.193498 -0.961629
0.089164 -0.265746 -0.959911
-0.999948 0.000737 -0.010137
-0.983544 -0.160344 -0.083256
-0.982558 -0.120381 -0.141733
-0.983544 -0.160344 -0.083256
-0.160219 0.400902 0.902002
-0.160219 0.400902 0.902002
-0.983544 -0.160344 -0.083256
-0.115879 0.479171 0.870039
-0.160219 0.400902 0.902002
-0.115879 0.479171 0.870039
0.950968 0.307866 -0.029638
-0.115879 0.479171 0.870039
0.936770 0.346818 -0.046684
0.950968 0.307866 -0.029638
0.950968 0.307866 -0.029638
0.936770 0.346818 -0.046684
0.055806 -0.177944 -0.982457
0.936770 0.346818 -0.046684
0.089164 -0.265746 -0.959911
0.055806 -0.177944 -0.982457
-0.983544 -0.160344 -0.083256
0.055806 -0.177944 -0.982457
0.089164 -0.265746 -0.959911
0.055806 -0.177944 -0.982457
-0.983544 -0.160344 -0.083256
-0.982558 -0.120381 -0.141733
-0.981216 -0.023962 -0.191420
-0.982558 -0.120381 -0.141733
-0.165726 0.236888 0.957298
-0.165726 0.236888 0.957298
-0.982558 -0.120381 -0.141733
-0.160219 0.400902 0.902002
-0.160219 0.400902 0.902002
0.986571 0.160240 -0.031647
-0.165726 0.236888 0.957298
0.986571 0.160240 -0.031647
-0.160219 0.400902 0.902002
0.950968 0.307866 -0.029638
0.986571 0.160240 -0.031647
0.055806 -0.177944 -0.982457
-0.017093 -0.047513 -0.998724
0.055806 -0.177944 -0.982457
0.986571 0.160240 -0.031647
0.950968 0.307866 -0.029638
-0.982558 -0.120381 -0.141733
-0.981216 -0.023962 -0.191420
0.055806 -0.177944 -0.982457
0.055806 -0.177944 -0.982457
-0.981216 -0.023962 -0.191420
-0.017093 -0.047513 -0.998724
-0.108885 0.020716 0.993839
-0.981216 -0.023962 -0.191420
-0.165726 0.236888 0.957298
-0.981216 -0.023962 -0.191420
-0.108885 0.020716 0.993839
-0.970657 0.211013 -0.115321
-0.108885 0.020716 0.993839
0.986571 0.160240 -0.031647
0.999552 -0.015813 -0.025428
0.986571 0.160240 -0.031647
-0.108885 0.020716 0.993839
-0.165726 0.236888 0.957298
-0.017093 -0.047513 -0.998724
0.999552 -0.015813 -0.025428
0.986571 0.160240 -0.031647
0.999552 -0.015813 -0.025428
-0.017093 -0.047513 -0.998724
-0.034148 0.188110 -0.981554
-0.981216 -0.023962 -0.191420
-0.970657 0.211013 -0.115321
-0.017093 -0.047513 -0.998724
-0.017093 -0.047513 -0.998724
-0.970657 0.211013 -0.115321
-0.034148 0.188110 -0.981554
-0.970657 0.211013 -0.115321
-0.108885 0.020716 0.993839
0.264559 0.933801 0.240881
-0.108885 0.020716 0.993839
0.999552 -0.015813 -0.025428
0.264559 0.933801 0.240881
0.999552 -0.015813 -0.025428
-0.034148 0.188110 -0.981554
0.264559 0.933801 0.240881
-0.034148 0.188110 -0.981554
-0.970657 0.211013 -0.115321
0.264559 0.933801 0.240881
-0.507645 0.323284 0.798614
-0.381437 0.362408 0.850392
-0.518982 0.319273 0.792921
-0.381437 0.362408 0.850392
-0.518982 0.319273 0.792921
-0.381437 0.362408 0.850392
-0.877009 0.217022 0.428668
-0.877009 0.217022 0.428668
-0.877009 0.217022 0.428668
-0.877009 0.217022 0.428668
-0.877009 0.217022 0.428668
-0.877009 0.217022 0.428668
0.623525 0.277695 0.730823
0.518982 0.319273 0.792921
0.507645 0.323284 0.798614
0.623525 0.277695 0.730823
0.507645 0.323284 0.798614
0.623525 0.277695 0.730823
0.877009 0.217021 0.428668
0.877009 0.217021 0.428668
0.877009 0.217022 0.428668
0.877009 0.217021 0.428668
0.877009 0.217021 0.428668
0.877009 0.217021 0.428668
0.518982 0.319273 0.792921
0.381437 0.362408 0.850392
0.507645 0.323284 0.798614
0.381437 0.362408 0.850392
0.518982 0.319273 0.792921
0.381437 0.362408 0.850392
-0.623525 0.277695 0.730823
-0.507645 0.323284 0.798614
-0.518982 0.319273 0.792921
-0.507645 0.323284 0.798614
-0.623525 0.277695 0.730823
-0.623525 0.277695 0.730823
</float_array>
          <technique_common>
            <accessor source="#Horned_Helmet_of_Gold_ground-Normal0-array" count="1170" stride="3">
              <param name="X" type="float"/>
              <param name="Y" type="float"/>
              <param name="Z" type="float"/>
            </accessor>
          </technique_common>
        </source>
        <source id="Horned_Helmet_of_Gold_ground-UV0">
          <float_array id="Horned_Helmet_of_Gold_ground-UV0-array" count="502">
0.630900 0.741000
0.739000 0.632600
0.668300 0.611300
0.700100 0.432600
0.813800 0.452100
0.835500 0.350600
0.703500 0.336600
0.684400 0.515700
0.776500 0.542500
0.975400 0.380800
0.931300 0.498400
0.864400 0.595400
0.606100 0.617200
0.492300 0.542400
0.581500 0.520400
0.567300 0.433300
0.449000 0.452700
0.482100 0.353300
0.553800 0.337300
0.538900 0.628800
0.765400 0.682100
0.849700 0.080600
0.846100 0.206300
0.991600 0.217100
0.990700 0.084100
0.687700 0.069000
0.699700 0.200000
0.536100 0.058600
0.549800 0.201200
0.399237 0.343471
0.480400 0.334500
0.395100 0.206800
0.380000 0.047100
0.283400 0.357500
0.346139 0.351887
0.275600 0.214000
0.254800 0.036100
0.165300 0.227500
0.153800 0.021300
0.218910 0.376809
0.257100 0.020100
0.158400 0.005600
0.387200 0.033900
0.680600 0.051100
0.535300 0.042300
0.848800 0.063100
0.986900 0.065900
0.185800 0.354700
0.207600 0.413300
0.237200 0.402700
0.501100 0.665600
0.479081 0.707274
0.363800 0.486500
0.430900 0.582700
0.350447 0.414600
0.273285 0.526628
0.351200 0.626900
0.352400 0.868400
0.453800 0.942200
0.490100 0.896600
0.400100 0.824000
0.293800 0.794200
0.362600 0.776200
0.840200 0.894700
0.898000 0.787700
0.853500 0.779500
0.798400 0.865900
0.730100 0.978200
0.715700 0.922200
0.585800 0.990500
0.601100 0.936900
0.350010 0.374287
0.403042 0.365619
0.637400 0.751600
0.364128 0.743845
0.308328 0.749645
0.365928 0.752645
0.313228 0.768845
0.292200 0.392600
0.266128 0.776745
0.261628 0.762145
0.275637 0.746952
0.475600 0.348400
0.274337 0.738352
0.342937 0.730452
0.668300 0.611300
0.739000 0.632600
0.700100 0.432600
0.703500 0.336600
0.835500 0.350600
0.813800 0.452100
0.213607 0.719700
0.169408 0.719700
0.776500 0.542500
0.684400 0.515700
0.127828 0.719700
0.350010 0.374287
0.084572 0.719700
0.036393 0.719700
0.166435 0.615800
0.606100 0.617200
0.492300 0.542400
0.449000 0.452700
0.567300 0.433300
0.581500 0.520400
0.116255 0.390500
0.482100 0.353300
0.212955 0.508800
0.206074 0.615800
0.126604 0.615800
0.178055 0.508800
0.553800 0.337300
0.087350 0.615800
0.292200 0.392600
0.143055 0.508800
0.072655 0.508800
0.538900 0.628800
0.107055 0.508800
0.222629 0.615800
0.047326 0.615800
0.197300 0.508800
0.162900 0.508800
0.126900 0.508800
0.091900 0.508800
0.057000 0.508800
0.153700 0.390500
0.179100 0.390500
0.125600 0.390500
0.103473 0.390908
0.088907 0.390500
0.308328 0.749645
0.849700 0.080600
0.846100 0.206300
0.403042 0.365619
0.158400 0.295200
0.081382 0.890504
0.340700 0.359500
0.699700 0.200000
0.687700 0.069000
0.480400 0.334500
0.474900 0.341200
0.343637 0.737652
0.142500 0.295200
0.399237 0.343471
0.406300 0.349100
0.549800 0.201200
0.536100 0.058600
0.125000 0.295200
0.182605 0.615800
0.143351 0.615800
0.082500 0.806300
0.474900 0.341200
0.395100 0.206800
0.110840 0.294384
0.128069 0.806300
0.233301 0.806300
0.172497 0.806300
0.380000 0.047100
0.283400 0.357500
0.275600 0.214000
0.346139 0.351887
0.011446 0.992700
0.015080 0.888580
0.254800 0.036100
0.065288 0.992700
0.065288 0.890325
0.125100 0.992700
0.063881 0.615800
0.218910 0.376809
0.257100 0.020100
0.011446 0.888841
0.387200 0.033900
0.011446 0.992700
0.127379 0.886253
0.258509 0.888841
0.680600 0.051100
0.081382 0.992700
0.142577 0.886253
0.535300 0.042300
0.258509 0.992700
0.188573 0.992700
0.188573 0.890504
0.019337 0.806300
0.144793 0.992700
0.140058 0.295200
0.848800 0.063100
0.151770 0.295608
0.161733 0.293976
0.123792 0.203108
0.091900 0.295200
0.237200 0.402700
0.238200 0.377800
0.501100 0.665600
0.343637 0.737652
0.407600 0.357700
0.242700 0.392400
0.363800 0.486500
0.103520 0.615800
0.233562 0.719700
0.430900 0.582700
0.185384 0.719700
0.350447 0.414600
0.142127 0.719700
0.090855 0.390500
0.056348 0.719700
0.100547 0.719700
0.250618 0.806300
0.144355 0.390500
0.187455 0.806300
0.141886 0.806300
0.036654 0.806300
0.097458 0.806300
0.258509 0.992700
0.352400 0.868400
0.400100 0.824000
0.490100 0.896600
0.453800 0.942200
0.093192 0.296424
0.122150 0.294792
0.840200 0.894700
0.798400 0.865900
0.730100 0.978200
0.715700 0.922200
0.183497 0.389276
0.170155 0.390500
0.585800 0.990500
0.601100 0.936900
0.340700 0.359500
0.342500 0.368300
0.289800 0.384500
0.242700 0.392400
0.284900 0.365300
0.238200 0.377800
0.124200 0.228000
0.406300 0.349100
0.342500 0.368300
0.313228 0.768845
0.254876 0.888580
0.204667 0.992700
0.204667 0.890325
0.407600 0.357700
0.475600 0.348400
0.342937 0.730452
0.274337 0.738352
0.275637 0.746952
0.284900 0.365300
0.261628 0.762145
0.266128 0.776745
0.289800 0.384500
0.365928 0.752645
0.364128 0.743845
</float_array>
          <technique_common>
            <accessor source="#Horned_Helmet_of_Gold_ground-UV0-array" count="251" stride="2">
              <param name="S" type="float"/>
              <param name="T" type="float"/>
            </accessor>
          </technique_common>
        </source>
        <vertices id="Horned_Helmet_of_Gold_ground-VERTEX">
          <input semantic="POSITION" source="#Horned_Helmet_of_Gold_ground-POSITION"/>
        </vertices>
        <triangles count="390" material="helmetMat"><input semantic="VERTEX" offset="0" source="#Horned_Helmet_of_Gold_ground-VERTEX"/><input semantic="NORMAL" offset="1" source="#Horned_Helmet_of_Gold_ground-Normal0"/><input semantic="TEXCOORD" offset="2" set="0" source="#Horned_Helmet_of_Gold_ground-UV0"/><p> 0 0 0 1 1 1 2 2 2 4 3 4 6 4 6 3 5 3 6 6 6 4 7 4 5 8 5 8 9 8 3 10 3 7 11 7 3 12 3 8 13 8 4 14 4 5 15 5 10 16 10 9 17 9 10 18 10 5 19 5 4 20 4 8 21 8 10 22 10 4 23 4 10 24 10 8 25 8 11 26 11 2 27 2 12 28 12 0 29 0 14 30 14 15 31 15 13 32 13 13 33 13 15 34 15 16 35 16 16 36 16 15 37 15 17 38 17 6 39 6 15 40 15 3 41 3 15 42 15 6 43 6 18 44 18 7 45 7 15 46 15 14 47 14 15 48 15 7 49 7 3 50 3 12 51 12 14 52 14 19 53 19 19 54 19 14 55 14 13 56 13 2 57 2 14 58 14 12 59 12 14 60 14 2 61 2 7 62 7 2 63 2 8 64 8 7 65 7 8 66 8 2 67 2 1 68 1 11 69 11 1 70 1 20 71 20 1 72 1 11 73 11 8 74 8 20 75 20 1 76 1 0 77 0 24 78 24 21 79 21 23 80 23 21 81 21 22 82 22 23 83 23 22 84 22 9 85 9 23 86 23 9 87 9 22 88 22 5 89 5 21 90 21 26 91 26 22 92 22 26 93 26 21 94 21 25 95 25 5 96 5 22 97 22 6 98 6 6 99 6 22 100 22 26 101 26 28 102 28 25 103 25 27 104 27 25 105 25 28 106 28 26 107 26 26 108 26 18 109 18 6 110 6 18 111 18 26 112 26 28 113 28 29 114 29 30 115 30 31 116 31 31 117 31 27 118 27 32 119 32 27 120 27 31 121 31 28 122 28 33 123 33 34 124 34 35 125 35 35 126 35 32 127 32 36 128 36 32 129 32 35 130 35 31 131 31 36 132 36 37 133 37 35 134 35 37 135 37 36 136 36 38 137 38 35 138 35 37 139 37 39 140 39 38 141 38 36 142 36 40 143 40 38 144 38 40 145 40 41 146 41 40 147 40 32 148 32 42 149 42 32 150 32 40 151 40 36 152 36 27 153 27 25 154 25 43 155 43 27 156 27 43 157 43 44 158 44 32 159 32 27 160 27 42 161 42 42 162 42 27 163 27 44 164 44 45 165 45 25 166 25 21 167 21 25 168 25 45 169 45 43 170 43 21 171 21 46 172 46 45 173 45 46 174 46 21 175 21 24 176 24 49 177 49 47 178 47 48 179 48 47 180 47 49 181 49 39 182 39 19 183 19 50 184 50 0 185 0 0 186 0 12 187 12 19 188 19 51 189 51 0 190 0 50 191 50 16 192 16 53 193 53 13 194 13 53 195 53 16 196 16 52 197 52 52 198 52 16 199 16 54 200 54 55 201 55 52 202 52 49 203 49 52 204 52 56 205 56 53 206 53 56 207 56 52 208 52 55 209 55 13 210 13 50 211 50 19 212 19 50 213 50 13 214 13 53 215 53 56 216 56 51 217 51 53 218 53 53 219 53 51 220 51 50 221 50 58 222 60 42 223 58 57 224 59 42 225 58 58 226 60 40 227 57 58 228 60 41 229 61 40 230 57 41 231 61 58 232 60 59 233 62 45 234 63 60 235 65 61 236 66 60 237 65 45 238 63 46 239 64 45 240 63 62 241 68 43 242 67 62 243 68 45 244 63 61 245 66 63 246 70 43 247 67 62 248 68 43 249 67 63 250 70 44 251 69 57 252 59 44 253 69 63 254 70 44 255 69 57 256 59 42 257 58 64 258 71 65 259 72 29 260 29 64 261 71 29 262 29 34 263 34 31 264 31 34 265 34 29 266 29 58 267 60 57 268 59 66 269 73 59 270 62 58 271 60 66 272 73 61 273 66 60 274 65 66 275 73 62 276 68 61 277 66 66 278 73 63 279 70 62 280 68 66 281 73 57 282 59 63 283 70 66 284 73 30 285 30 17 286 17 18 287 18 17 288 17 15 289 15 18 290 18 28 291 28 30 292 30 18 293 18 39 294 39 37 295 37 47 296 47 55 297 55 49 298 49 48 299 48 34 300 34 68 301 231 67 302 227 68 303 231 34 304 34 33 305 33 64 306 71 67 307 227 69 308 228 67 309 227 64 310 71 34 311 34 69 312 228 70 313 229 64 314 71 70 315 229 71 316 78 64 317 71 70 318 229 49 319 49 71 320 78 49 321 49 70 322 229 72 323 230 49 324 49 73 325 232 39 326 39 49 327 49 72 328 230 73 329 232 39 330 39 68 331 231 33 332 33 68 333 231 39 334 39 73 335 232 65 336 72 75 337 82 74 338 240 75 339 82 65 340 72 17 341 17 29 342 29 74 343 240 76 344 234 74 345 240 29 346 29 65 347 72 30 348 30 76 349 234 77 350 151 76 351 234 30 352 30 29 353 29 17 354 17 30 355 30 75 356 82 75 357 82 30 358 30 77 359 151 16 360 16 17 361 17 65 362 72 31 363 31 30 364 30 28 365 28 35 366 35 34 367 34 31 368 31 35 369 35 39 370 39 33 371 33 52 372 52 54 373 54 71 374 78 49 375 49 52 376 52 71 377 78 65 378 72 54 379 54 16 380 16 54 381 54 65 382 72 64 383 71 54 384 54 64 385 71 71 386 78 0 387 0 78 388 85 79 389 86 81 390 88 83 391 90 80 392 87 83 393 90 81 394 88 82 395 89 85 396 94 80 397 87 84 398 93 80 399 87 83 400 90 84 401 93 82 402 89 10 403 10 83 404 90 10 405 10 82 406 89 9 407 9 83 408 90 10 409 10 84 410 93 10 411 10 11 412 11 84 413 93 78 414 85 0 415 0 86 416 100 90 417 104 87 418 101 89 419 103 87 420 101 88 421 102 89 422 103 88 423 102 91 424 106 89 425 103 81 426 88 89 427 103 92 428 111 89 429 103 81 430 88 80 431 87 89 432 103 85 433 94 90 434 104 85 435 94 89 436 103 80 437 87 86 438 100 93 439 116 90 440 104 93 441 116 87 442 101 90 443 104 90 444 104 78 445 85 86 446 100 78 447 85 90 448 104 85 449 94 84 450 93 78 451 85 85 452 94 78 453 85 84 454 93 79 455 86 11 456 11 79 457 86 84 458 93 79 459 86 11 460 11 20 461 20 20 462 20 0 463 0 79 464 86 24 465 24 23 466 23 94 467 131 94 468 131 23 469 23 95 470 132 95 471 132 9 472 9 82 473 89 9 474 9 95 475 132 23 476 23 94 477 131 96 478 137 97 479 138 96 480 137 94 481 131 95 482 132 81 483 88 96 484 137 95 485 132 81 486 88 95 487 132 82 488 89 98 489 145 99 490 146 97 491 138 98 492 145 97 493 138 96 494 137 96 495 137 92 496 111 98 497 145 92 498 111 96 499 137 81 500 88 100 501 143 101 502 152 102 503 139 101 504 152 103 505 157 99 506 146 101 507 152 99 508 146 98 509 145 104 510 158 105 511 159 106 512 160 105 513 159 103 514 157 101 515 152 103 516 157 105 517 159 107 518 163 107 519 163 105 520 159 37 521 37 37 522 37 38 523 38 107 524 163 105 525 159 108 526 168 37 527 37 41 528 41 109 529 169 38 530 38 107 531 163 38 532 38 109 533 169 109 534 169 103 535 157 107 536 163 103 537 157 109 538 169 110 539 171 112 540 178 111 541 175 99 542 146 99 543 146 111 544 175 97 545 138 99 546 146 103 547 157 110 548 171 110 549 171 112 550 178 99 551 146 111 552 175 113 553 185 97 554 138 94 555 131 97 556 138 113 557 185 24 558 24 94 559 131 46 560 46 46 561 46 94 562 131 113 563 185 114 564 190 47 565 47 108 566 168 47 567 47 114 568 190 48 569 48 93 570 116 0 571 0 115 572 192 0 573 0 93 574 116 86 575 100 51 576 51 115 577 192 0 578 0 117 579 199 88 580 102 87 581 101 88 582 102 117 583 199 116 584 196 116 585 196 118 586 201 88 587 102 55 588 55 114 589 190 116 590 196 116 591 196 56 592 56 55 593 55 56 594 56 116 595 196 117 596 199 87 597 101 93 598 116 115 599 192 115 600 192 117 601 199 87 602 101 56 603 56 117 604 199 51 605 51 117 606 199 115 607 192 51 608 51 110 609 216 119 610 214 120 611 215 119 612 214 110 613 216 109 614 213 109 615 213 41 616 61 119 617 214 41 618 61 59 619 62 119 620 214 46 621 64 113 622 219 60 623 65 60 624 65 113 625 219 121 626 220 113 627 219 122 628 222 121 629 220 122 630 222 113 631 219 111 632 221 123 633 226 111 634 221 112 635 225 111 636 221 123 637 226 122 638 222 120 639 215 123 640 226 112 641 225 112 642 225 110 643 216 120 644 215 106 645 160 100 646 143 124 647 96 124 648 96 100 649 143 125 650 133 101 651 152 100 652 143 106 653 160 119 654 214 66 655 73 120 656 215 59 657 62 66 658 73 119 659 214 121 660 220 66 661 73 60 662 65 122 663 222 66 664 73 121 665 220 123 666 226 66 667 73 122 668 222 120 669 215 66 670 73 123 671 226 102 672 139 92 673 111 91 674 106 91 675 106 92 676 111 89 677 103 98 678 145 92 679 111 102 680 139 108 681 168 47 682 47 37 683 37 55 684 55 48 685 48 114 686 190 106 687 160 127 688 245 104 689 158 127 690 245 106 691 160 126 692 136 124 693 96 126 694 136 106 695 160 126 696 136 124 697 96 128 698 235 124 699 96 129 700 248 128 701 235 129 702 248 124 703 96 130 704 113 114 705 190 129 706 248 130 707 113 129 708 248 114 709 190 131 710 195 114 711 190 132 712 191 131 713 195 114 714 190 108 715 168 132 716 191 108 717 168 104 718 158 127 719 245 127 720 245 132 721 191 108 722 168 134 723 241 125 724 133 133 725 194 125 726 133 134 727 241 91 728 106 100 729 143 133 730 194 125 731 133 133 732 194 100 733 143 135 734 144 135 735 144 102 736 139 136 737 140 102 738 139 135 739 144 100 740 143 91 741 106 134 742 241 102 743 139 134 744 241 136 745 140 102 746 139 88 747 102 125 748 133 91 749 106 101 750 152 98 751 145 102 752 139 105 753 159 101 754 152 106 755 160 105 756 159 104 757 158 108 758 168 116 759 196 130 760 113 118 761 201 114 762 190 130 763 113 116 764 196 125 765 133 118 766 201 124 767 96 118 768 201 125 769 133 88 770 102 118 771 201 130 772 113 124 773 96 138 774 180 140 775 174 137 776 181 140 777 174 138 778 180 139 779 179 142 780 166 137 781 181 141 782 173 137 783 181 142 784 166 138 785 180 143 786 165 144 787 164 142 788 166 143 789 165 142 790 166 141 791 173 143 792 165 140 793 162 144 794 164 140 795 162 139 796 161 144 797 164 137 798 181 146 799 155 145 800 156 146 801 155 137 802 181 140 803 174 141 804 173 145 805 156 147 806 154 145 807 156 141 808 173 137 809 181 147 810 154 143 811 165 141 812 173 143 813 165 147 814 154 148 815 150 140 816 162 143 817 165 146 818 182 146 819 182 143 820 165 148 821 150 150 822 92 145 823 156 146 824 155 150 825 92 146 826 155 149 827 91 151 828 95 145 829 156 150 830 92 151 831 95 147 832 154 145 833 156 151 834 95 148 835 150 147 836 154 148 837 150 151 838 95 152 839 97 146 840 182 152 841 97 149 842 98 152 843 97 146 844 182 148 845 150 149 846 91 154 847 108 153 848 99 153 849 99 150 850 92 149 851 91 150 852 92 153 853 99 155 854 109 155 855 109 151 856 95 150 857 92 151 858 95 155 859 109 156 860 112 156 861 112 152 862 97 151 863 95 156 864 112 149 865 98 152 866 97 149 867 98 156 868 112 154 869 119 154 870 108 158 871 121 153 872 99 158 873 121 154 874 108 157 875 120 159 876 122 153 877 99 158 878 121 153 879 99 159 880 122 155 881 109 160 882 123 155 883 109 159 884 122 155 885 109 160 886 123 156 887 112 154 888 119 160 889 123 157 890 124 160 891 123 154 892 119 156 893 112 157 894 120 162 895 126 161 896 125 161 897 125 158 898 121 157 899 120 158 900 121 161 901 125 163 902 127 163 903 127 159 904 122 158 905 121 163 906 127 160 907 123 159 908 122 160 909 123 163 910 127 164 911 128 160 912 123 162 913 129 157 914 124 162 915 129 160 916 123 164 917 128 166 918 142 161 919 125 162 920 126 162 921 126 165 922 134 166 923 142 163 924 127 166 925 142 167 926 147 166 927 142 163 928 127 161 929 125 167 930 147 164 931 128 163 932 127 164 933 128 167 934 147 168 935 153 165 936 189 162 937 129 164 938 128 164 939 128 168 940 153 165 941 189 165 942 134 169 943 233 166 944 142 166 945 142 169 946 233 167 947 147 167 948 147 169 949 233 168 950 153 168 951 153 169 952 233 165 953 189 171 954 170 173 955 176 170 956 135 173 957 176 171 958 170 172 959 172 175 960 183 170 961 135 173 962 176 170 963 135 175 964 183 174 965 177 174 966 177 175 967 183 176 968 239 176 969 239 175 970 183 177 971 238 176 972 239 177 973 238 171 974 237 171 975 237 177 976 238 172 977 212 170 978 135 179 979 210 171 980 170 179 981 210 170 982 135 178 983 211 174 984 177 178 985 211 170 986 135 178 987 211 174 988 177 180 989 209 180 990 209 176 991 239 181 992 208 176 993 239 180 994 209 174 995 177 179 996 206 181 997 208 176 998 239 179 999 206 176 1000 239 171 1001 237 182 1002 205 179 1003 210 178 1004 211 179 1005 210 182 1006 205 183 1007 204 182 1008 205 178 1009 211 184 1010 202 184 1011 202 178 1012 211 180 1013 209 184 1014 202 181 1015 208 185 1016 200 181 1017 208 184 1018 202 180 1019 209 179 1020 206 185 1021 200 181 1022 208 185 1023 200 179 1024 206 183 1025 198 187 1026 167 183 1027 204 186 1028 197 186 1029 197 183 1030 204 182 1031 205 186 1032 197 182 1033 205 188 1034 149 188 1035 149 182 1036 205 184 1037 202 184 1038 202 189 1039 148 188 1040 149 189 1041 148 184 1042 202 185 1043 200 183 1044 198 189 1045 148 185 1046 200 189 1047 148 183 1048 198 187 1049 118 191 1050 115 187 1051 167 190 1052 117 190 1053 117 187 1054 167 186 1055 197 190 1056 117 186 1057 197 192 1058 114 186 1059 197 188 1060 149 192 1061 114 192 1062 114 188 1063 149 193 1064 110 188 1065 149 189 1066 148 193 1067 110 187 1068 118 193 1069 110 189 1070 148 193 1071 110 187 1072 118 191 1073 107 195 1074 203 191 1075 115 194 1076 105 194 1077 105 191 1078 115 190 1079 117 190 1080 117 196 1081 207 194 1082 105 196 1083 207 190 1084 117 192 1085 114 196 1086 207 193 1087 110 197 1088 224 193 1089 110 196 1090 207 192 1091 114 191 1092 107 195 1093 223 193 1094 110 193 1095 110 195 1096 223 197 1097 224 198 1098 218 195 1099 203 194 1100 105 195 1101 203 198 1102 218 199 1103 217 198 1104 218 196 1105 207 200 1106 184 196 1107 207 198 1108 218 194 1109 105 197 1110 224 200 1111 184 196 1112 207 200 1113 184 197 1114 224 201 1115 186 195 1116 223 199 1117 187 197 1118 224 197 1119 224 199 1120 187 201 1121 186 199 1122 217 198 1123 218 202 1124 188 198 1125 218 200 1126 184 202 1127 188 200 1128 184 201 1129 186 202 1130 188 201 1131 186 199 1132 187 202 1133 188 68 1134 75 73 1135 80 70 1136 77 72 1137 79 70 1138 77 73 1139 80 77 1140 84 76 1141 83 74 1142 81 74 1143 81 75 1144 193 77 1145 84 128 1146 249 129 1147 236 127 1148 130 128 1149 249 127 1150 130 126 1151 250 133 1152 244 136 1153 242 134 1154 141 136 1155 242 133 1156 244 135 1157 243 129 1158 236 132 1159 246 127 1160 130 132 1161 246 129 1162 236 131 1163 247 69 1164 76 68 1165 75 70 1166 77 68 1167 75 69 1168 76 67 1169 74</p></triangles>
      </mesh>
    </geometry>
  </library_geometries>
  <library_visual_scenes>
    <visual_scene id="Horned_Helmet_of_Gold" name="Horned_Helmet_of_Gold">
      <node name="Horned_Helmet_of_Gold_group" id="Horned_Helmet_of_Gold_group" sid="Horned_Helmet_of_Gold_group"><matrix sid="matrix">1.000000 0.000000 0.000000 0.000000 0.000000 1.000000 0.000000 0.000000 0.000000 0.000000 1.000000 0.000000 0.000000 0.000000 0.000000 1.000000</matrix><extra><technique profile="FCOLLADA"><visibility>1.000000</visibility></technique></extra><node name="Horned_Helmet_of_Gold_ground" id="Horned_Helmet_of_Gold_ground" sid="Horned_Helmet_of_Gold_ground"><matrix sid="matrix">1.000000 0.000000 0.000000 0.000000 0.000000 1.000000 0.000000 0.000000 0.000000 0.000000 1.000000 0.000000 0.000000 0.000000 0.000000 1.000000</matrix><instance_geometry url="#Horned_Helmet_of_Gold_ground-lib"><bind_material><technique_common><instance_material symbol="helmetMat" target="#helmetMat"/></technique_common></bind_material></instance_geometry><extra><technique profile="FCOLLADA"><visibility>1.000000</visibility></technique></extra></node></node>
      <extra><technique profile="MAX3D"><frame_rate>30.000000</frame_rate></technique><technique profile="FCOLLADA"><start_time>0.000000</start_time><end_time>0.033333</end_time></technique></extra>
    </visual_scene>
  </library_visual_scenes>
  <scene>
    <instance_visual_scene url="#Horned_Helmet_of_Gold"></instance_visual_scene>
  </scene>
</COLLADA>
